<svg width="164" height="164" viewBox="0 0 164 164" fill="none" xmlns="http://www.w3.org/2000/svg">
<rect width="163.223" height="163.223" rx="81.6114" fill="#E53935" fill-opacity="0.1"/>
<g clip-path="url(#clip0_2284_42923)">
<path d="M81.6115 65.3667C68.5511 65.3667 62.3462 75.5919 62.3462 100.446H100.883C100.883 75.5919 94.6719 65.3667 81.6115 65.3667Z" fill="#DB4437"/>
<path d="M71.2293 77.3879C71.0492 77.2019 70.7645 77.1438 70.5205 77.2484C70.2765 77.3472 70.1196 77.5854 70.1196 77.8526V94.9218C70.1202 95.0948 70.1888 95.2605 70.3105 95.3833C70.4323 95.5062 70.5974 95.5762 70.7703 95.5783C70.9388 95.5783 71.1073 95.5144 71.2293 95.3866L79.851 86.852C79.9731 86.73 80.0486 86.5615 80.0486 86.3872C80.0486 86.2129 79.9789 86.0445 79.851 85.9224L71.2293 77.3879ZM92.7023 77.2484C92.4525 77.1438 92.1736 77.2019 91.9877 77.3879L83.3718 85.9283C83.2492 86.0519 83.1804 86.2189 83.1804 86.393C83.1804 86.5672 83.2492 86.7342 83.3718 86.8578L91.9877 95.3924C92.1097 95.5144 92.2782 95.5842 92.4467 95.5842C92.6196 95.582 92.7848 95.512 92.9065 95.3892C93.0282 95.2663 93.0968 95.1006 93.0974 94.9276V77.8526C93.1032 77.5854 92.9405 77.3472 92.7023 77.2484Z" fill="white"/>
<path d="M64.0312 47.4791C63.9092 47.1654 63.6478 46.9272 63.3224 46.84C63.0087 46.7471 62.6543 46.8168 62.387 47.026L54.9563 52.7951C54.8247 52.8965 54.7187 53.0275 54.6469 53.1773C54.5751 53.3272 54.5394 53.4918 54.5428 53.6579C54.5462 53.8241 54.5886 53.9871 54.6664 54.1339C54.7443 54.2807 54.8555 54.4072 54.9912 54.5032L68.313 63.9673C68.4989 64.101 68.7197 64.1649 68.9347 64.1649H68.9637C69.1565 64.1649 69.3456 64.1126 69.5109 64.0135C69.6762 63.9143 69.8115 63.7721 69.9022 63.602C69.9929 63.4319 70.0357 63.2404 70.0259 63.0479C70.0162 62.8554 69.9543 62.6691 69.8468 62.5091L64.0312 47.4791ZM62.8983 71.3516L49.9366 61.6725C49.6636 61.4691 49.315 61.411 48.9954 61.504C48.6701 61.5969 48.4145 61.841 48.2983 62.1605L45.0796 71.003C44.9692 71.3225 45.0099 71.6711 45.19 71.9558C45.3759 72.2347 45.6839 72.4148 46.0208 72.4322L62.3405 73.3676H62.4219C63.0435 73.3327 63.4967 72.8912 63.4967 72.3044C63.4909 71.8861 63.2469 71.5259 62.8983 71.3516ZM108.68 53.6608C108.685 53.3238 108.534 53.0042 108.267 52.8009L100.842 47.0201C100.575 46.811 100.226 46.7471 99.9067 46.8342C99.5814 46.9272 99.3199 47.1654 99.1979 47.4733L93.301 62.7182C93.2386 62.8798 93.2164 63.0541 93.2364 63.2261C93.2564 63.3982 93.318 63.5628 93.4158 63.7057C93.5135 63.8487 93.6446 63.9657 93.7977 64.0467C93.9508 64.1277 94.1213 64.1702 94.2944 64.1707C94.5094 64.1707 94.7244 64.1068 94.9103 63.9731L108.232 54.509C108.505 54.3114 108.674 53.9977 108.68 53.6608ZM118.144 71.003L114.919 62.1605C114.803 61.8468 114.547 61.6027 114.222 61.504C113.897 61.4052 113.548 61.4691 113.281 61.6725L100.191 71.4504C99.8138 71.735 99.6685 72.2289 99.8254 72.6704C99.9764 73.0945 100.383 73.3676 100.825 73.3676H100.889L117.208 72.4322C117.374 72.422 117.535 72.3733 117.678 72.29C117.822 72.2067 117.944 72.091 118.034 71.9522C118.125 71.8134 118.182 71.6553 118.201 71.4905C118.22 71.3257 118.201 71.1588 118.144 71.003Z" fill="#DB4437"/>
<path d="M60.4243 101.028H102.813V116.668H60.4243V101.028Z" fill="white"/>
<path d="M102.806 118.794H60.4232C59.8587 118.794 59.3173 118.57 58.9176 118.172C58.5179 117.773 58.2926 117.232 58.291 116.668V101.028C58.291 99.8484 59.2438 98.9014 60.4232 98.9014H102.812C103.985 98.9014 104.938 99.8542 104.938 101.028V116.668C104.935 117.232 104.71 117.772 104.31 118.17C103.911 118.569 103.37 118.793 102.806 118.794ZM62.5496 114.536H100.674V103.154H62.5496V114.536Z" fill="#78A3AD"/>
</g>
<defs>
<clipPath id="clip0_2284_42923">
<rect width="74.3654" height="74.3654" fill="white" transform="translate(44.4287 44.4287)"/>
</clipPath>
</defs>
</svg>
