<svg width="164" height="164" viewBox="0 0 164 164" fill="none" xmlns="http://www.w3.org/2000/svg">
<rect width="163.931" height="163.931" rx="81.9657" fill="#358AE5" fill-opacity="0.1"/>
<g clip-path="url(#clip0_2284_42920)">
<path d="M35.8589 100.408C42.6425 94.4153 51.3969 91.1324 60.4486 91.1872C75.8172 91.1872 103.481 117.142 128.07 92.552M85.8784 85.8759C89.5514 80.7352 91.4164 74.5218 91.1816 68.2082C91.2053 67.1844 91.024 66.1662 90.6486 65.2135C90.2732 64.2607 89.7111 63.3926 88.9954 62.6602C88.2797 61.9278 87.4248 61.3458 86.481 60.9485C85.5372 60.5511 84.5234 60.3464 83.4994 60.3464C82.4753 60.3464 81.4616 60.5511 80.5178 60.9485C79.574 61.3458 78.7191 61.9278 78.0034 62.6602C77.2877 63.3926 76.7256 64.2607 76.3502 65.2135C75.9747 66.1662 75.7935 67.1844 75.8172 68.2082C75.8172 70.4868 72.2885 69.8475 70.5632 68.0647C70.0755 67.5549 69.694 66.9532 69.4407 66.2947C69.1874 65.6362 69.0675 64.934 69.0878 64.2287C69.2558 59.094 71.4136 54.2258 75.1051 50.6528C78.7967 47.0798 83.7327 45.082 88.8702 45.0815C109.931 45.0815 112.767 67.4787 120.111 82.339M35.8589 115.777C42.6425 109.784 51.3969 106.501 60.4486 106.556C75.8172 106.556 103.481 132.51 128.07 107.921" stroke="#0BA5EC" stroke-width="6.14743" stroke-linecap="round" stroke-linejoin="round"/>
</g>
<defs>
<clipPath id="clip0_2284_42920">
<rect width="98.3588" height="98.3588" fill="white" transform="translate(32.7866 32.7861)"/>
</clipPath>
</defs>
</svg>
