<svg width="1268" height="906" viewBox="0 0 1268 906" fill="none" xmlns="http://www.w3.org/2000/svg">
<path d="M47.0323 657.202L-12 710.737V708.095L44.9578 656.501L-12 550.042V545.144L47.7457 656.556L47.0323 657.202ZM1116.25 913H1110.75L1142.33 894.108L1116.38 866.55L1035.81 913H1030.23L1114.45 864.505L1013.02 756.798C968.007 786.152 921.441 816.456 875.26 846.509C866.647 852.114 857.926 857.79 849.137 863.51C849.318 863.616 849.483 863.766 849.609 863.959L881.58 913H878.745L847.658 865.233C847.531 865.038 847.463 864.825 847.44 864.615C823.208 880.385 798.357 896.562 773.124 913H768.249C775.423 908.333 782.569 903.684 789.678 899.06L755.829 844.704L716.399 780.783C702.969 788.549 555.417 872.824 548.637 876.696L548.375 876.846L548.08 876.853L506.721 877.8C507.003 891.092 507.19 899.903 507.234 901.98L508.424 913H505.948L504.793 902.209C504.783 901.69 504.598 892.544 504.301 877.856L438.507 879.362L434.836 913H432.384L437.698 864.729L329.921 860.3L330.802 813.076L192.227 808.017L116.413 870.509L176.694 913H171.844L114.213 872.321L66.3646 911.76L65.0282 913H61.6947L65.0692 909.873L112.311 870.98L99.1313 861.677L99.0442 861.557L52.0559 797.059L43.8989 788.669C43.8289 788.762 43.764 788.858 43.6714 788.938L-12 836.876V834.066L42.3663 787.307C42.4077 787.272 42.455 787.257 42.4981 787.227L34.8633 779.375L-12 728.241V724.424L36.7795 777.562L54.0757 795.333L101.034 859.669L114.512 869.169L190.763 806.392C190.953 806.022 191.289 805.749 191.673 805.643L248.522 758.84L96.3579 537.419L70.7899 496.059C43.7692 511.846 16.1301 527.872 -12 544.058V542.064C15.8225 526.067 43.1654 510.228 69.9016 494.622L43.7773 452.362L38.3373 444.567L-12 472.555V470.693L37.4135 443.243L35.031 439.829L23.1897 420.129L-12 435.961V434.229L23.2213 418.396L48.7044 392.521L-12 386.663V384.964L50.4653 390.987L105.375 360.977L71.0327 304.668L71.0139 304.59L62.0458 267.786L59.2721 253.345C37.955 265.652 19.3745 276.375 13.5834 279.702C12.8623 280.116 12.0452 280.315 11.2776 280.269C10.5118 280.22 9.89695 279.928 9.54751 279.446L-12 249.703V246.467L11.2503 278.504C11.3783 278.681 11.6036 278.789 11.8844 278.806C12.169 278.827 12.4651 278.75 12.7287 278.599C28.9131 269.308 141.774 204.163 142.871 203.529L167.119 189.267L104.392 162.507L48.0943 157.667L32.1899 156.071L-12 201.985V199.972L6.60181 180.666C4.81194 179.968 -2.21056 177.188 -12 173.305V171.669C-1.51808 175.823 6.01685 178.804 7.74698 179.478L30.4661 155.898L-12 151.638V150.309L21.2433 153.641L41.1951 125.125L28.7902 119.754L28.739 119.716L-12 90.3128V88.4023L2.53013 98.8773C2.57237 98.8287 2.61034 98.7791 2.66965 98.7349L55.5469 59.5621L70.0441 48.4233L117.951 17.6388L138.388 -2.44672L130.969 -6H133.923L155.915 4.52405C171.353 4.88511 185.41 7.32305 197.742 11.7893C201.847 13.2755 205.789 15.0067 209.477 16.9357L218.679 10.1291L220.831 -6H222.385L220.206 10.4558L219.986 10.6184L178.888 41.0435L214.973 66.5399L271.365 39.71L284.777 39.0654L286.537 36.6749L295.39 -6H296.94L288.087 36.881L288.019 36.9738L285.2 40.809L328.389 52.8269L372.353 -6H374.026L329.825 53.2261L407.252 74.7711C418.979 58.2384 428.213 45.2982 429.311 43.7602L423.993 0.10576L401.301 -6H405.637L423.845 -1.10448L423.249 -6H424.819L425.474 -0.667073L425.675 -0.613078L458.137 0.188115L524.442 -6H535.776L458.117 1.25328L458.049 1.25165L425.611 0.449908L426.961 11.4414L513.866 16.4263L561.501 11.4195L581.3 27.378L581.761 30.1944L589.497 36.9187C617.051 21.0404 651.035 1.47144 654.23 -0.368193L658.326 -6H660.069L655.488 0.310831L655.368 0.380096C654.418 0.927679 556.948 57.1023 555.703 57.8762L555.455 58.03L555.129 58.0213L459.449 55.4748L439.074 95.8988L427.497 113.402L453.19 120.342L452.837 120.926L387.172 229.409L436.293 244.349L479.782 217.485L498.488 205.001L505.817 194.964L572.584 88.7345L592.693 90.3668L612.727 75.7365L613.308 76.2082C613.516 76.3768 617.897 79.9339 624.781 85.5237L664.709 60.7532L657.719 55.4912L654.433 38.8832L654.754 38.6901L702.568 9.93279L709.167 0.77933C702.534 -1.50972 695.882 -3.80422 689.515 -6H692.891C698.427 -4.09219 704.141 -2.1222 709.841 -0.157669L714.053 -6H715.812L711.256 0.329919C732.09 7.51175 752.494 14.5485 762.762 18.0893L775.706 -4.88247L772.61 -6H775.816L834.608 15.2117L850.951 -6H852.781L836.059 15.7359L854.089 22.2408C864.106 24.6319 880.987 28.5915 897.394 32.4393C913.548 36.2276 930.316 40.1605 940.623 42.6176L940.688 -5.99945H942.253L942.233 57.1438C942.83 58.7783 943.428 60.4238 944.027 62.072L1065.53 53.8784C1057.54 37.4777 1050.46 22.9373 1048.46 18.8097C1048.24 18.3494 1048.29 17.8924 1048.6 17.5237C1048.91 17.155 1049.43 16.9216 1050.09 16.8659L1088.69 13.5701L1080.26 -5.28389L1035.26 -1.76824C1031.86 -1.5059 1028.22 -3.20319 1027.14 -5.55277L1026.93 -6H1028.5L1028.64 -5.6913C1029.46 -3.90948 1032.22 -2.62179 1034.8 -2.82086L1075.52 -6H1081.5L1090.21 13.4397L1121.44 10.7733L1127.89 8.69037L1107.61 -6H1109.52L1129.23 8.2595L1162.48 -2.46689L1164.63 -6H1166.48L1164.87 -3.35535L1176.79 -2.18656L1184.9 -6H1187.95L1177.5 -1.0843L1164.28 -2.38181L1163.82 -1.6188L1163.62 -1.55608L1130.41 9.16705L1170.3 40.388C1174.31 38.2822 1198.01 25.9932 1220.78 14.1951L1195.2 -6H1197.02L1221.88 13.6202C1237.04 5.76702 1251.63 -1.79605 1259.75 -6H1262.66C1255.06 -2.05839 1239.38 6.07353 1223.05 14.5436L1234.74 23.7641L1234.8 23.8667L1263.38 68.7744L1268 70.0632V71.1873L1262.25 69.5811L1233.38 24.1536L1221.94 15.1185C1209.6 21.522 1196.98 28.0695 1187.37 33.0643L1205.76 47.6445L1205.83 47.7574C1206.04 48.1223 1215 63.1546 1225.83 81.311L1268 77.1867V78.4106L1226.52 82.47C1234.62 96.0592 1243.71 111.297 1250.85 123.26C1252.74 122.988 1258.92 122.1 1268 120.794V122.114C1259.52 123.335 1253.65 124.179 1251.57 124.478C1257.62 134.616 1262.1 142.104 1263.07 143.702L1268 142.959V144.318L1189.23 156.18L1184.26 186.804L1260.88 183.615L1268 186.95V188.315L1260.84 184.959L1157.52 189.264L1157.96 196.603L1180.63 247.024L1185.83 263.987L1210.66 326.319L1268 322.672V324.247L1211.13 327.868L1226.4 411.968C1227.09 411.392 1227.72 410.777 1228.27 410.119C1232.05 405.64 1231.85 400.431 1231.7 396.646C1231.67 395.877 1231.64 395.151 1231.65 394.495C1231.73 386.183 1240.76 379.309 1258.57 365.755C1262.26 362.949 1264.8 361.016 1268 359.16V361.403C1265.48 362.984 1263.21 364.712 1260.13 367.058C1242.61 380.408 1233.73 387.177 1233.66 394.937C1233.65 395.562 1233.68 396.273 1233.71 397.025C1233.87 401.005 1234.09 406.482 1230.03 411.302C1229.16 412.33 1228.14 413.266 1226.99 414.103L1268 476.398V479.61L1230.57 422.662L1177.25 430.032L1148.79 467.587L1100.87 509.725L1083.01 521.589L1047.7 547.26L1091.25 593.096L1070.49 611.164L1119.36 647.258L1123.67 643.361L1146.06 621.39L1133.99 611.387L1238.87 513.094L1239.1 513.047L1268 507.014V509.031L1240.31 514.816L1137.18 611.609L1147.79 620.395C1148.01 620.447 1148.23 620.556 1148.42 620.726C1148.58 620.866 1148.68 621.029 1148.75 621.197L1178.63 645.939L1268 617.874V620.217L1180.7 647.659L1186.01 652.054C1186.78 652.748 1222.95 685.464 1261.81 720.603L1268 714.365V718.038L1263.74 722.342C1265.16 723.624 1266.58 724.909 1268 726.195V728.842C1266.12 727.138 1264.23 725.435 1262.36 723.736L1189.8 797.029L1173.01 877.911L1216.91 913H1213.3L1171.76 879.759L1146.27 895.022L1163.22 913H1160.13L1144.3 896.2L1116.25 913ZM1190.79 792.234L1116.37 716.203C1104.96 726.903 1092.9 738.213 1081.88 748.553C1094.2 761.786 1104.23 773.127 1115.18 785.62C1117.69 788.488 1119.78 790.915 1121.86 793.789C1121.91 793.857 1122.99 795.357 1124.03 796.95C1127.94 802.954 1160.69 857.759 1170.96 874.959L1187.55 795.509L1190.79 792.234ZM1184.84 653.556L1177.02 659.699L1167.25 669.161L1165.1 670.517C1163.54 671.96 1142.32 691.859 1117.84 714.824L1192.26 790.756L1260.43 721.996C1223.28 688.363 1188.58 656.948 1184.84 653.556ZM1048.95 714.322C1061.26 726.788 1071.31 737.244 1080.15 746.7C1115.75 713.359 1161.84 670.194 1163.38 668.775L1163.49 668.688L1165.63 667.339L1175.31 657.966L1182.94 651.975L1178.15 648.001C1178 647.912 1177.85 647.798 1177.74 647.658L1147.89 622.909L1125.42 644.992L1048.95 714.322ZM1069.03 612.431L1003.43 669.516C1010.05 676.049 1014.72 680.555 1019.25 684.929C1024.49 689.987 1029.47 694.785 1036.59 701.904C1040.32 705.622 1043.85 709.168 1047.22 712.572L1117.91 648.57L1069.03 612.431ZM622.262 616.604L627.725 670.952L650.609 673.119L642.812 616.276C642.767 616.182 642.731 616.082 642.718 615.974C642.706 615.875 642.714 615.78 642.73 615.687L637.6 578.288L618.547 579.647L622.262 616.604ZM441.909 717.462L441.89 717.676L433.152 814.374L503.066 816.923C501.491 739.298 499.452 639.217 499.185 628.295L406.187 636.171L425.531 664.055L425.574 664.198L441.909 717.462ZM567.209 620.476L620.011 615.777L616.431 579.811C608.706 580.461 559.629 584.585 512.534 588.51C512.532 588.51 512.531 588.511 512.529 588.511C512.528 588.511 512.526 588.511 512.525 588.511C471.562 591.925 432.118 595.186 422.93 595.859C421.356 595.973 419.854 595.462 418.8 594.454L416.489 592.242C415.392 591.193 413.58 591.077 412.175 591.967C408.783 594.117 399.35 600.093 386.713 608.101L404.83 634.215C404.832 634.215 404.834 634.215 404.836 634.214L567.209 620.476ZM385.604 606.467C396.991 599.26 406.094 593.499 411.077 590.344C413.357 588.901 416.301 589.088 418.08 590.788L420.391 592.997C421.04 593.617 421.969 593.932 422.931 593.861C432.027 593.195 470.838 589.989 511.383 586.614L508.552 516.18L450.641 538.303L450.48 538.317L346.588 547.77L385.604 606.467ZM344.302 548.211C344.255 548.141 344.241 548.063 344.218 547.986L273.634 554.409L200.842 595.084L226.167 635.371L258.301 687.115C267.875 680.996 341.097 634.639 383.737 607.649L344.302 548.211ZM531.222 252.532L583.027 216.573L544.707 182.461L526.855 215.675L523.545 238.766L523.246 238.956L468.046 274.116L481.451 288.409L532.329 255.809C532.502 255.697 532.708 255.643 532.912 255.643C532.938 255.643 532.963 255.648 532.988 255.65L531.222 252.532ZM888.53 79.761L858.478 102.247L894.071 128.283L865.257 149.634L829.705 175.709C838.465 182.884 939.163 266.357 949.216 274.69C950.191 267.912 952.289 254.177 954.797 237.862C954.765 237.81 954.738 237.756 954.721 237.7L911.98 96.4246C910.192 95.2242 906.441 92.5353 901.851 89.2444C897.696 86.2671 892.896 82.8272 888.53 79.761ZM902.946 88.4645C906.294 90.8621 909.338 93.042 911.39 94.4764L903.541 68.5306L889.595 78.9652C893.885 81.9753 898.629 85.3726 902.946 88.4645ZM1154.56 168.787L1154.69 129.69L1093.3 110.84L1093.14 110.514C1093.1 110.418 1092.53 109.259 1091.56 107.269L1050.7 110.274L1076.43 191.356L1117.78 189.571L1155.68 187.994L1154.56 168.787ZM1071.45 384.988L1045.63 361.553L1012.51 384.871L906.966 460.011C906.965 460.012 906.963 460.012 906.962 460.013L913.878 489.277L916.134 498.072L1004.45 433.772C1004.49 433.671 1004.56 433.579 1004.66 433.505C1004.76 433.43 1004.88 433.389 1005.01 433.363L1071.45 384.988ZM916.728 500.158C916.712 500.169 916.691 500.171 916.675 500.181L931.689 558.734L1006.14 504.102L1006.28 504.059L1060.39 487.271L1005.49 435.454L916.728 500.158ZM911.466 280.899C914.445 280.705 929.507 279.719 948.699 278.465C948.757 277.98 948.853 277.261 948.984 276.321C948.837 276.276 948.695 276.214 948.575 276.116C947.364 275.11 837.557 183.988 828.522 176.577L776.885 214.449L805.589 220.989L805.728 221.068L911.466 280.899ZM910.795 282.21L879.744 264.625L831.815 285.968C871.682 322.991 959.945 404.966 969.031 413.464L1011.1 383.549L1044.21 360.264L1008.4 327.758L978.888 329.18L910.795 282.21ZM761.879 212.426L803.934 269.533C803.951 269.557 803.963 269.582 803.977 269.606L810.959 266.6L811.475 267.079C812.722 268.237 819.889 274.893 830.536 284.78L878.026 263.652L804.898 222.235L761.879 212.426ZM783.656 280.071L795.873 295.716L798.63 298.974L828.97 285.476C819.256 276.446 812.516 270.179 810.647 268.442L783.656 280.071ZM799.718 300.261L806.177 307.894L870.783 391.334L876.467 389.059L899.712 429.334L899.74 429.454L906.474 457.947L967.63 414.461C958.617 406.023 869.904 323.535 830.248 286.666L799.718 300.261ZM1073.51 384.679C1073.51 384.679 1073.51 384.679 1073.51 384.68C1073.51 384.68 1073.51 384.68 1073.51 384.68L1086.71 396.647L1125.9 369.051L1117.2 341.765L1065.07 318.947L1050.76 273.314C1044.41 273.701 989.055 277.315 950.043 279.866C949.889 279.922 949.707 279.941 949.514 279.912C949.502 279.909 949.49 279.905 949.478 279.903C932.363 281.022 918.501 281.93 913.499 282.257L979.294 327.598L1008.97 326.169L1046.25 359.968C1046.25 359.969 1046.25 359.969 1046.25 359.97C1046.25 359.97 1046.25 359.97 1046.25 359.971L1073.51 384.679ZM1050.3 271.862L1042.52 247.054L1025.85 194.894L962.802 197.618C961.628 205.315 960.389 213.417 959.147 221.531C955.18 247.46 951.309 272.76 950.597 278.341C989.537 275.797 1043.91 272.25 1050.3 271.862ZM970.1 147.734C970.111 149.35 966.945 170.435 963.009 196.255L1025.48 193.558L1017.42 163.12L1000.52 113.966L962.713 116.746C965.28 125.475 967.117 132.788 969.065 140.804C969.511 142.64 969.865 144.183 970.017 145.891C970.021 145.931 970.094 146.82 970.1 147.734ZM961.076 116.866L920.741 119.833L955.392 233.996C956.032 229.834 956.694 225.537 957.366 221.171C962.645 186.897 968.391 149.586 968.379 147.544C968.374 146.666 968.303 145.783 968.302 145.774C968.158 144.136 967.813 142.63 967.379 140.834C965.446 132.848 963.622 125.559 961.076 116.866ZM1027.2 193.483L1074.71 191.431L1049.07 110.394L1002.15 113.845L1019.12 163.052L1027.2 193.483ZM1090.98 106.073C1088.78 101.579 1085.13 94.0777 1080.85 85.305L955.392 93.9436C958.275 102.342 960.503 109.303 962.353 115.526L1090.98 106.073ZM953.774 94.0548L913.798 96.9602L920.37 118.611L960.716 115.646C958.872 109.423 956.652 102.459 953.774 94.0548ZM887.29 78.8922C882.126 75.2827 877.738 72.331 876.017 71.5047C862.872 65.1982 848.367 60.7969 832.853 58.3742L838.612 87.3873L857.255 101.341L887.29 78.8922ZM831.148 57.915L812.166 46.7926L796.498 67.1584L796.399 67.2195L752.219 94.2648L746.136 98.9978C746.199 99.0273 746.26 99.0611 746.313 99.1031L835.588 169.491L863.984 148.687L891.687 128.181L856.747 102.599L856.742 102.596L856.153 102.165L856.16 102.16L837.059 87.8493L837.019 87.6442L831.148 57.915ZM745.124 99.8835C745.101 99.8655 745.093 99.8432 745.073 99.8241L739.289 104.324L691.754 139.539C691.675 139.597 691.583 139.639 691.486 139.668C707.937 153.016 720.697 163.362 721.542 164.023L742.238 150.303L765.61 116.051L745.124 99.8835ZM682.258 191.858L746.648 207.56L774.855 213.987C774.855 213.986 774.856 213.985 774.857 213.984L834.411 170.353L766.859 117.037L743.634 151.129L682.258 191.858ZM680.729 192.872L548.995 280.291L618.778 397.987L657.937 379.37L650.131 365.04L650.913 364.693L797.061 299.673L794.349 296.463L781.089 279.459L802.448 270.264C802.424 270.238 802.398 270.213 802.377 270.184L759.76 212.228C759.686 212.128 759.65 212.021 759.643 211.916L746.226 208.856L680.729 192.872ZM794.871 517.239C794.871 517.179 794.872 515.869 794.957 514.524C795.151 511.465 799.048 492.835 802.752 475.13C803.298 472.52 803.837 469.945 804.354 467.464L752.679 482.623L740.637 495.478L752.774 565.983L800.922 561.381C798.609 547.878 797.079 536.744 795.513 524.788C795.156 522.055 794.882 519.769 794.871 517.239ZM803 561.182L853.334 556.371L841.001 502.917L826.586 471.27L810.413 447.665C809.585 452.363 807.239 463.632 804.748 475.596C801.245 492.425 797.204 511.835 797.021 514.779C796.94 516.071 796.94 517.373 796.939 517.386C796.953 519.814 797.223 522.046 797.575 524.717C799.147 536.633 800.684 547.731 803 561.182ZM808.783 445.286L778.105 400.513L596.09 477.061L611.897 513.503L611.911 513.635L613.053 525.002C613.113 525.011 613.174 525.011 613.234 525.03L633.289 531.622L633.369 532.204L639.445 576.176L665.802 574.298L750.689 566.182L738.48 494.856L751.425 481.057L751.68 480.982L804.479 465.508C804.575 465.48 804.673 465.468 804.771 465.466C806.843 455.509 808.492 447.424 808.714 445.493C808.722 445.418 808.753 445.352 808.783 445.286ZM618.349 577.68L637.331 576.327L631.388 533.001L613.257 527.036L618.349 577.68ZM609.873 513.931L594.125 477.537C594.118 477.521 594.116 477.505 594.11 477.489L520.407 480.21L509.151 481.753C509.178 481.828 509.208 481.901 509.212 481.984L513.513 586.438C560.214 582.548 608.541 578.491 616.236 577.845L609.873 513.931ZM777.09 399.033L754.388 365.9L730.105 331.261L652.617 365.767L660.425 380.074L619.586 399.51L644.908 454.57L777.09 399.033ZM547.525 281.266L502.669 311.032L513.858 322.962L513.118 323.447L507.411 327.18C507.471 327.279 507.508 327.389 507.509 327.508L508.109 397.127L616.78 398.288L547.525 281.266ZM375.545 403.627C374.978 405.855 374.395 408.167 375.053 411.195L474.14 347L511.246 322.744L500.76 311.548C500.707 311.514 500.649 311.489 500.605 311.444C500.552 311.39 500.526 311.327 500.495 311.266L480.77 290.206C480.633 290.162 480.504 290.1 480.407 289.999C480.306 289.894 480.264 289.771 480.246 289.646L465.783 274.204L443.853 287.502L429.981 296.839L344.743 349.876L344.62 350.013C344.602 351.451 344.619 352.888 344.674 354.313C344.779 356.987 345.398 359.552 346.518 361.934C351.941 373.474 358.69 381.783 366.56 386.543C366.779 386.676 367.014 386.814 367.262 386.961C369.977 388.567 374.53 391.259 375.918 396.209C376.712 399.045 376.12 401.372 375.545 403.627ZM546.736 279.909L533.611 256.747C533.561 256.804 533.511 256.862 533.44 256.909L482.532 289.56L501.564 309.854L528.514 291.99L546.736 279.909ZM524.891 217.001L453.332 258.426L466.983 272.981L521.851 238.068L524.891 217.001ZM451.823 259.3L375.91 303.245L352.073 287.396L337.424 311.597C339.018 312.864 340.431 314.278 341.631 315.807C343.124 317.709 345.747 321.822 346.51 327.955C346.704 329.512 346.562 330.325 346.282 331.945C345.93 333.979 345.338 337.392 344.798 345.516C344.741 346.36 344.702 347.207 344.671 348.056L428.892 295.703L442.77 286.371L464.722 273.071L451.823 259.3ZM361.974 267.826L321.768 255.341L273.098 240.006C268.709 246.317 233.088 296.997 210.95 328.488L271.793 350.306C271.868 350.333 271.931 350.37 271.989 350.411L326.902 318.459L335.536 311.429L361.974 267.826ZM305.446 248.601C315.585 237.132 323.369 225.26 328.758 213.167L271.357 195.694L233.598 225.982L305.446 248.601ZM362.796 266.472L384.777 230.22L330.351 213.652C324.948 225.751 317.17 237.629 307.063 249.11L322.611 254.004L362.796 266.472ZM334.169 198.244C336.158 191.112 337.298 183.913 337.59 176.832L273.053 194.7L329.351 211.823C331.287 207.321 332.9 202.794 334.169 198.244ZM337.908 175.401C344.409 165.522 350.967 155.641 357.405 146.024C360.695 141.111 365.566 134.041 371.242 125.894L321.141 111.638L272.976 193.365L337.908 175.401ZM338.251 187.54L377.071 186.803L400.92 150.804L363.792 139.301C361.931 142.019 360.288 144.441 358.921 146.486C352.463 156.147 345.884 166.075 339.365 176C339.242 179.82 338.866 183.676 338.251 187.54ZM401.7 149.626L410.098 136.95L372.758 126.325C369.776 130.611 367.016 134.601 364.59 138.137L401.7 149.626ZM410.866 135.791L425.223 114.119L388.289 104.134C383.156 111.433 378.117 118.626 373.553 125.182L410.866 135.791ZM386.78 103.726L300.638 80.4389C295.163 88.249 290.495 94.664 286.208 100.348L372.038 124.751C376.603 118.203 381.644 111.018 386.78 103.726ZM299.173 80.0429L263.642 70.139L249.176 89.8198L284.737 99.9304C289.025 94.2528 293.694 87.8465 299.173 80.0429ZM248.36 90.9291L230.975 114.582L230.875 114.658L183.621 150.462C191.509 156.179 199.228 161.775 205.746 166.5C208.448 164.445 219.646 156.882 231.369 148.964C244.676 139.976 259.594 129.901 261.397 128.311C262.209 127.597 262.972 126.856 262.979 126.849C264.386 125.469 265.501 124.135 266.812 122.537C272.638 115.432 277.911 108.923 283.896 101.041L248.36 90.9291ZM206.884 167.324C215.633 173.667 221.973 178.264 223.209 179.16L271.159 193.351L319.65 111.214L285.368 101.459C279.365 109.378 274.078 115.913 268.235 123.047C266.896 124.683 265.754 126.05 264.288 127.49C264.253 127.524 263.487 128.269 262.641 129.014C260.749 130.683 246.426 140.366 232.419 149.835C220.663 157.782 209.439 165.37 206.884 167.324ZM222.836 180.541L190.021 212.264L231.955 225.465L270.426 194.637L222.836 180.541ZM188.589 213.379L112.698 252.215L151.325 274.805L209.999 260.938L230.786 226.674L188.589 213.379ZM111.189 253.291C111.098 253.237 111.03 253.169 110.984 253.092L96.9984 260.249L155.102 309.53L209.322 327.919C231.45 296.489 267.168 245.746 271.516 239.507L232.349 227.166L211.201 262.086L210.724 262.198L150.667 276.403L150.354 276.219L111.189 253.291ZM194.165 352.362L194.004 352.592L193.726 352.727L111.612 392.584L142.739 442.537L185.128 400.953L185.264 400.874L270.099 351.511L209.944 329.919C201.319 342.188 195.067 351.079 194.165 352.362ZM143.656 444.008L159.124 468.831C159.142 468.86 159.141 468.895 159.154 468.926L168.488 462.795L239.927 417.74L221.656 381.528L186.318 402.11L143.656 444.008ZM240.482 414.321L328.65 365.335L342.723 349.626C342.75 348.284 342.804 346.941 342.894 345.605C343.448 337.413 344.05 333.956 344.409 331.897C344.686 330.309 344.8 329.653 344.631 328.278C343.909 322.432 341.427 318.53 340.015 316.726C338.928 315.34 337.645 314.06 336.215 312.899L327.947 319.623L223.387 380.519L240.482 414.321ZM241.215 415.771L242.074 417.469L278.727 472.853L324.45 445.223L347.344 429.147L373.277 412.346C373.231 412.174 373.187 411.998 373.145 411.813C372.365 408.383 373.038 405.749 373.631 403.431C374.185 401.264 374.707 399.222 374.015 396.741C372.784 392.332 368.722 389.928 366.04 388.34C365.787 388.19 365.547 388.048 365.323 387.913C357.189 382.987 350.249 374.461 344.717 362.659C343.526 360.12 342.869 357.388 342.761 354.543C342.731 353.75 342.715 352.953 342.707 352.155L329.911 366.458L329.747 366.55L241.269 415.752C241.252 415.761 241.233 415.763 241.215 415.771ZM279.684 474.299L297.654 501.452L410.307 490.25C409.58 470.285 408.521 467.86 406.582 465.1C404.037 461.479 400.566 458.426 397.221 455.481C391.686 450.611 386.482 446.032 385.544 439.34L385.49 438.935C385.332 437.724 385.004 435.208 384.041 431.987C382.734 427.612 381.528 424.928 379.436 421.722C378.248 419.902 377.241 418.701 376.354 417.642C375.312 416.4 374.473 415.398 373.848 413.985L348.458 430.451L325.493 446.59L279.684 474.299ZM412.35 490.046L496.387 481.689L520.34 478.415L594.677 475.673L643.109 455.324L617.704 399.958L506.175 398.767L505.637 328.341L475.258 348.22L375.548 412.882C376.114 414.323 376.914 415.281 377.995 416.569C378.865 417.604 379.947 418.894 381.184 420.785C383.362 424.116 384.614 426.895 385.969 431.412C386.968 434.743 387.308 437.334 387.472 438.582L387.525 438.973C388.393 445.125 393.392 449.518 398.707 454.189C402.125 457.192 405.669 460.307 408.324 464.078C410.487 467.151 411.587 469.601 412.35 490.046ZM412.998 539.828L450.251 536.441L508.473 514.22L507.182 482.124C507.181 482.089 507.187 482.055 507.19 482.021L496.561 483.477L412.414 491.853C412.472 493.525 412.529 495.301 412.583 497.21C412.98 511.049 413.118 525.378 412.998 539.828ZM644.774 614.75L808.223 599.173C805.227 584.943 803.016 573.431 801.258 563.321L666.045 576.259L639.715 578.137L644.774 614.75ZM810.336 598.971L861.898 593.489L853.778 558.296L803.337 563.122C805.104 573.228 807.325 584.738 810.336 598.971ZM866.403 603.653L877.42 598.556L929.944 560.015C929.9 559.937 929.862 559.856 929.84 559.769L911.875 489.436L897.817 429.709L875.677 391.278L870.221 393.463L804.645 308.648L798.149 300.96L731.722 330.54L756.031 365.16L828.39 470.596L842.995 502.633L866.403 603.653ZM866.893 605.764L878.674 656.608L921.145 668.191L935.203 626.279L1018.4 565.862C1001.36 548.445 983.329 530.028 979.576 526.206L878.722 600.302L867.029 605.718C866.985 605.738 866.938 605.75 866.893 605.764ZM923.242 669.193L957.32 694.659L957.403 694.746L963.432 701.139L1067.14 611.029L1050.75 598.916L1050.67 598.837C1050.35 598.502 1035.81 583.642 1019.95 567.44L937.13 627.656L923.242 669.193ZM965.077 702.884L1008.03 748.429L1045.7 713.943C1042.34 710.541 1038.81 706.998 1035.1 703.283C1027.99 696.173 1023.03 691.378 1017.8 686.322C1013.25 681.931 1008.57 677.404 1001.91 670.834L965.077 702.884ZM1046.2 548.35L1021.47 566.331C1033.69 578.793 1045.57 590.92 1052.09 597.574L1068.59 609.764L1088.26 592.672L1046.2 548.35ZM1089.51 514.726C1089.47 514.699 1089.43 514.684 1089.4 514.653L1062.01 488.804L1007.4 505.767L981.065 525.112C984.94 529.052 1002.54 547.013 1019.93 564.754L1044.93 546.598C1044.93 546.363 1045.04 546.146 1045.24 546C1045.4 545.888 1045.59 545.834 1045.79 545.834C1045.85 545.834 1045.9 545.843 1045.96 545.851L1081.52 520.03L1089.51 514.726ZM1156.7 453.595L1123.01 431.782L1122.93 431.71L1086.09 398.273C1086.09 398.273 1086.09 398.273 1086.09 398.273L1072.91 386.309L1006.89 434.436L1090.79 513.538C1090.87 513.606 1090.91 513.685 1090.96 513.761L1099.35 508.193L1147.06 466.292L1156.7 453.595ZM1119.19 342.057L1128.08 369.861L1088.18 397.985L1124.18 430.623L1157.69 452.294L1175.8 428.432L1229.49 421.018L1224.77 413.837L1224.74 413.667L1211.19 338.654L1119.19 342.057ZM1181.61 256.452L1082.22 262.131L1081.99 262.057L1045.26 250.034L1066.66 318.05L1118.04 340.517L1210.91 337.085L1209.11 327.132L1184.02 264.008L1181.71 256.438C1181.67 256.443 1181.64 256.45 1181.61 256.452ZM1156.18 196.548L1155.76 189.338L1118.26 190.9L1076.56 192.702C1076.44 192.811 1076.27 192.883 1076.05 192.89C1075.84 192.902 1075.63 192.846 1075.44 192.751L1027.57 194.819L1044.29 246.966L1044.75 248.433L1082.17 260.67L1181.04 255.025C1181.12 255.02 1181.2 255.027 1181.28 255.038L1178.85 247.098L1156.18 196.548ZM1242.03 111.304L1229.19 112.763L1224.83 111.525L1195.81 115.679L1189.46 154.778L1261.49 143.938C1260.11 141.651 1251.84 127.776 1242.03 111.304ZM1224.95 82.6238L1163.51 88.6368L1156.2 79.2679L1087.21 94.9422C1091.1 102.895 1093.89 108.612 1094.58 110.013L1156.42 128.989L1156.33 169.058L1157.45 187.92L1182.4 186.882L1194.2 114.606L1224.56 110.263L1228.96 111.509L1241.31 110.105C1235.98 101.156 1230.26 91.5389 1224.95 82.6238ZM1153.71 73.2096C1153.64 73.3252 1153.52 73.4038 1153.37 73.4463L1164.22 87.336L1224.26 81.4643C1214.08 64.361 1205.55 50.0225 1204.38 48.0503L1186.23 33.6534C1177.82 38.0258 1171.96 41.0741 1171.05 41.5568L1153.71 73.2096ZM1091.13 14.4765L1127.73 40.6487L1127.81 40.7387L1152.36 72.1619L1169.38 41.1624L1129.09 9.59409L1122.18 11.8237L1122.08 11.8324L1091.13 14.4765ZM1067.29 54.161C1067.34 54.2144 1067.39 54.27 1067.41 54.3317C1067.43 54.3775 1067.44 54.4217 1067.44 54.4653C1074.06 68.0098 1081.26 82.764 1086.63 93.7521L1155.33 78.1553L1126.47 41.1712L1089.37 14.6271L1050.57 17.942C1050.33 17.9622 1050.14 18.0483 1050.03 18.1836C1049.91 18.3189 1049.9 18.4863 1049.98 18.6554C1051.99 22.8173 1059.2 37.5819 1067.29 54.161ZM944.442 63.2108C947.117 70.5764 949.802 78.0539 952.451 85.521C953.348 88.05 954.19 90.4557 954.985 92.759L1080.28 84.1373C1075.84 75.0427 1070.81 64.7248 1066.08 55.002L944.442 63.2108ZM942.853 63.3182L904.375 65.9149L913.437 95.7707L953.368 92.8702C952.577 90.5714 951.739 88.17 950.846 85.6453C948.203 78.1728 945.523 70.6893 942.853 63.3182ZM898.856 33.9048L902.763 60.6021L904.028 64.769L942.44 62.1783C941.836 60.5132 941.234 58.8503 940.631 57.1994L940.604 57.1258V57.0532L940.622 43.7476C930.721 41.3849 914.622 37.6053 898.856 33.9048ZM812.909 45.8267L832.212 57.1269C848.256 59.5512 863.25 64.0622 876.823 70.5688C878.659 71.4491 883.083 74.4155 888.355 78.0964L903.1 67.075L901.153 60.6387L901.148 60.607L897.211 33.5181C897.158 33.5056 897.106 33.4935 897.053 33.481C880.602 29.6201 863.672 25.6469 853.652 23.2531L853.531 23.2166L835.352 16.6532L812.909 45.8267ZM764.21 18.5888C767.039 19.5646 768.867 20.195 769.406 20.381L769.579 20.4601L811.607 45.0648L833.901 16.1302L777.122 -4.37089L764.21 18.5888ZM625.872 86.41C641.428 99.0398 668.772 121.239 690.401 138.788C690.439 138.734 690.476 138.68 690.536 138.635L738.059 103.467L751.073 93.3578L795.182 66.3823L810.864 46.0296L768.686 21.3164C766.792 20.6625 739.094 11.1027 710.582 1.26637L703.849 10.62L703.739 10.6865L656.129 39.3468L659.241 54.9938L667.03 60.8519L666.41 61.237L625.872 86.41ZM545.392 181.185C545.548 181.218 545.693 181.282 545.805 181.382L585.506 216.682L584.853 217.135L533.416 252.874L548.21 278.931L720.284 164.858C716.459 161.818 621.666 84.7656 612.665 77.449L593.698 91.3147L545.392 181.185ZM386.385 230.709L352.945 285.954L376.133 301.355L525.274 215.098L591.842 91.4909L573.578 90.0069L507.36 195.538L499.852 205.84L480.869 218.52L436.488 245.96L436.013 245.816L386.385 230.709ZM426.75 114.532L402.837 150.685C402.836 150.686 402.836 150.687 402.836 150.687C402.835 150.688 402.835 150.688 402.835 150.689L378.085 188.107L338.025 188.869C337.474 192.039 336.769 195.213 335.89 198.374C334.593 203.042 332.936 207.689 330.943 212.306L385.565 228.92L450.957 121.076L426.75 114.532ZM389.071 103.022L425.971 112.99L437.572 95.4778L458.362 54.306L554.913 56.8743C557.035 55.6319 571.249 47.4351 588.264 37.6293L580.237 30.6433L579.781 27.847L560.853 12.5742L513.857 17.5171L513.765 17.5117L427.095 12.5371L430.947 43.9003L430.841 44.0487C430.51 44.5145 409.248 74.3413 389.071 103.022ZM320.626 52.0099C317.107 57.2174 314.736 60.4838 312.434 63.6558C310.563 66.2318 308.624 68.9031 306.06 72.6293C304.444 74.9784 302.897 77.2096 301.407 79.3416L387.563 102.615C394.001 93.4767 400.553 84.2174 406.491 75.845L320.66 51.9434C320.649 51.9657 320.64 51.9881 320.626 52.0099ZM284.431 41.8545L264.437 69.0575L299.942 78.9461C301.434 76.8147 302.984 74.584 304.602 72.235C307.178 68.4974 309.124 65.8211 311 63.2402C313.299 60.0786 315.666 56.8214 319.176 51.6336C319.197 51.6036 319.228 51.579 319.254 51.5523L284.431 41.8545ZM226.525 62.3212L248.068 88.939L262.598 69.1988C262.599 69.1982 262.599 69.1977 262.6 69.1966C262.6 69.196 262.6 69.196 262.601 69.1955L283.933 40.214L271.724 40.8008L226.525 62.3212ZM174.52 87.083L135.786 115.835C139.512 118.502 161.422 134.374 182.504 149.652L229.644 113.97L247.095 90.2605L225.075 63.0117L174.52 87.083ZM64.276 54.3502C64.3341 54.3699 64.3917 54.3906 64.4386 54.4228L90.8505 72.7798L151.272 22.8086L154.691 5.36124L139.552 -1.88877L119.09 18.2431L119.008 18.296L71.0532 49.1362L64.276 54.3502ZM82.365 68.6866L43.3817 124.485L66.3735 134.432L121.031 95.5907L82.365 68.6866ZM42.0471 123.907L81.2143 67.9269C81.2207 67.9182 81.2313 67.9111 81.2377 67.9023L63.1394 55.3096C63.1185 55.2948 63.1129 55.2747 63.0959 55.2583L56.6489 60.2182L3.76192 99.4336C3.68213 99.4925 3.5921 99.5377 3.49951 99.5759L30.0505 118.717L42.0471 123.907ZM55.0788 156.942L65.3589 135.589L42.5305 125.703L22.8958 153.807L48.7061 156.394L55.0788 156.942ZM75.837 158.722L173.58 86.2338L173.678 86.1874L213.478 67.2511L176.659 41.2082L208.308 17.8002C204.693 15.912 200.831 14.2164 196.812 12.7596C184.827 8.41548 171.181 6.02118 156.205 5.61267L152.796 23.0988L152.615 23.2487L91.9001 73.5101L123.407 95.4085L67.1347 135.434L56.733 157.084L75.834 158.725C75.8353 158.724 75.8357 158.723 75.837 158.722ZM145.231 177.867L181.195 150.644C160.109 135.345 138.174 119.438 134.491 116.797L77.7817 158.892L105.249 161.252L105.372 161.304L144.98 178.186C145.031 178.073 145.105 177.962 145.231 177.867ZM168.633 188.267C168.669 188.282 168.698 188.301 168.728 188.32L204.29 167.403C197.81 162.7 190.146 157.138 182.311 151.453L146.365 178.689C146.338 178.71 146.304 178.72 146.275 178.738L168.633 188.267ZM65.7152 274.701L188.074 212.139L221.481 179.88C219.732 178.611 213.644 174.192 205.441 168.238L143.779 204.537C143.078 204.942 98.4465 230.726 61.012 252.339L63.8886 267.239L65.7152 274.701ZM107.144 360.01L180.513 319.912L153.817 310.849L153.714 310.763L95.2725 261.132L66.0535 276.084L72.8661 303.919L107.144 360.01ZM31.4534 429.73L192.695 351.533C193.771 350.005 199.905 341.294 208.314 329.349L182.419 320.559C182.417 320.56 182.416 320.561 182.415 320.562L51.0818 392.402L24.963 418.953L31.4534 429.73ZM71.805 493.512C73.1968 492.7 74.5941 491.887 75.982 491.076C99.2772 477.463 122.537 463.778 145.144 450.386L109.756 393.485L32.2743 431.093L36.8798 438.74L45.6286 451.254L71.805 493.512ZM82.8706 511.377L147.473 476.597L157.44 470.052C157.38 470.003 157.316 469.96 157.275 469.894L146.017 451.792C123.411 465.196 100.151 478.894 76.8559 492.52C75.4726 493.329 74.0808 494.138 72.6942 494.949L82.8706 511.377ZM154.944 618.55L273.198 552.537L273.46 552.513L410.906 540.018C411.041 525.571 410.917 511.244 410.535 497.409C410.482 495.498 410.427 493.726 410.371 492.056L296.41 503.399L296.124 502.966L240.763 419.159L169.499 464.147L148.346 478.046L83.7772 512.84L98.2592 536.22L154.944 618.55ZM329.638 810.598L317.501 787.133L256.861 689.299C256.861 689.297 256.86 689.297 256.859 689.296C256.858 689.295 256.858 689.293 256.858 689.292L224.216 636.63L198.85 596.196L156.028 620.124L251.662 759.025L195.05 805.689L329.638 810.598ZM332.497 810.703L430.806 814.289L439.615 717.848L423.492 665.09L384.846 609.285C343.321 635.598 268.946 682.735 259.381 688.854L319.569 785.771L332.497 810.703ZM504.249 875.303C503.951 860.579 503.555 841.007 503.115 819.367L333.164 813.162L332.373 857.867L440.367 862.301L440.229 863.569L438.786 876.801L504.249 875.303ZM579.924 855.974L561.509 821.499L505.481 819.453C505.94 841.016 506.354 860.526 506.667 875.248L547.793 874.307C549.79 873.168 562.418 865.963 579.924 855.974ZM715.14 778.743L651.359 675.343C651.339 675.342 651.319 675.346 651.299 675.343L625.699 672.917L625.611 672.029L620.214 617.814L567.37 622.522L501.355 628.112C501.637 639.148 503.776 739.308 505.428 817.01L562.948 819.108L582.036 854.769C628.642 828.176 705.656 784.221 715.14 778.743ZM880.923 839.742C880.862 839.584 880.828 839.416 880.83 839.243C881.008 818.786 878.973 798.526 874.836 779.007C874.752 778.61 866.299 739.486 843.754 697.315C838.792 688.033 833.461 679.872 833.408 679.791C830.148 674.814 826.635 669.903 822.969 665.193L822.808 664.986L822.751 664.74C818.836 647.524 814.991 630.31 811.32 613.571C810.363 609.211 809.476 605.093 808.645 601.175L645.055 616.78L652.922 673.724L757.809 843.45L791.687 897.753C819.736 879.511 847.236 861.637 873.827 844.354C876.186 842.821 878.562 841.277 880.923 839.742ZM1011.28 754.954L955.922 696.176L921.525 670.443L876.839 658.245L862.358 595.481L810.76 600.972C811.591 604.878 812.481 608.984 813.438 613.329C817.107 629.98 820.947 647.099 824.858 664.224C828.508 668.918 832.007 673.807 835.258 678.762C835.312 678.845 840.708 687.09 845.727 696.46C868.203 738.419 876.62 776.368 877.113 778.773L877.116 778.773C881.221 798.05 883.289 818.048 883.225 838.246C926.217 810.303 969.412 782.224 1011.28 754.954ZM1040.99 783.379C1044.01 780.544 1059.59 765.95 1078.63 748.118C1069.79 738.65 1059.75 728.183 1047.43 715.695L1009.74 750.247L1040.99 783.379ZM1144.3 892.932L1169.94 877.594C1163.05 866.029 1126.16 804.162 1122.1 797.923C1121.11 796.391 1120.04 794.9 1120.03 794.885C1118.03 792.126 1115.99 789.754 1113.53 786.946C1102.63 774.484 1092.63 763.168 1080.36 749.972C1061.32 767.831 1045.75 782.439 1042.75 785.25L1144.3 892.932ZM-12 26.3799V28.1044L-11.8485 28.2043L-12 28.3079V29.661L-9.55392 27.9888L-12 26.3799ZM1268 913V909.255L1265.19 913H1268ZM4.27776 -6L-12 4.2399V5.51068L6.28351 -6H4.27776Z" fill="#CDCDCD" fill-opacity="0.35"/>
</svg>
