<svg width="166" height="166" viewBox="0 0 166 166" fill="none" xmlns="http://www.w3.org/2000/svg">
<rect width="165.943" height="165.943" rx="82.9716" fill="#E53935" fill-opacity="0.1"/>
<path d="M62.2304 99.5667V116.161M64.3047 99.5667L101.642 62.2295M89.1962 99.5667L116.162 72.601M49.7847 89.1953L76.7504 62.2295M103.716 99.5667V116.161M53.9332 116.161H70.5276M95.419 116.161H112.013M103.716 62.2295V53.9324M62.2304 62.2295V53.9324M49.7847 66.3781C49.7847 65.2778 50.2217 64.2226 50.9998 63.4446C51.7778 62.6666 52.833 62.2295 53.9332 62.2295H112.013C113.114 62.2295 114.169 62.6666 114.947 63.4446C115.725 64.2226 116.162 65.2778 116.162 66.3781V95.4182C116.162 96.5184 115.725 97.5736 114.947 98.3516C114.169 99.1297 113.114 99.5667 112.013 99.5667H53.9332C52.833 99.5667 51.7778 99.1297 50.9998 98.3516C50.2217 97.5736 49.7847 96.5184 49.7847 95.4182V66.3781Z" stroke="#F04438" stroke-width="8.29716" stroke-linecap="round" stroke-linejoin="round"/>
</svg>
